<?xml version="1.0" encoding="utf-8"?>
<!-- Generator: Adobe Illustrator 15.0.2, SVG Export Plug-In . SVG Version: 6.00 Build 0)  -->
<!DOCTYPE svg PUBLIC "-//W3C//DTD SVG 1.1//EN" "http://www.w3.org/Graphics/SVG/1.1/DTD/svg11.dtd">
<svg version="1.1" id="Calque_1" xmlns="http://www.w3.org/2000/svg" xmlns:xlink="http://www.w3.org/1999/xlink" x="0px" y="0px"
	 width="22px" height="22px" viewBox="0 0 22 22" enable-background="new 0 0 22 22" xml:space="preserve">
<rect fill="#FFFFFF" fill-opacity="0" width="22" height="22"/>
<g id="shopping-cart">
	<path fill="#FFFFFF" d="M6.6,17.596c-1.209,0-2.197,0.99-2.197,2.197c0,1.217,0.988,2.205,2.197,2.205c1.21,0,2.2-0.988,2.2-2.205
		C8.8,18.586,7.81,17.596,6.6,17.596z M0,0v2.203h2.201l3.961,8.357l-1.543,2.636C4.51,13.53,4.402,13.97,4.402,14.302
		c0,1.207,0.988,2.198,2.197,2.198h13.203v-2.198H7.043c-0.112,0-0.222-0.115-0.222-0.223V13.97l0.988-1.869h8.138
		c0.889,0,1.543-0.438,1.877-1.1l3.959-7.145C22,3.633,22,3.524,22,3.305c0-0.661-0.438-1.101-1.1-1.101H4.619L3.632,0.002H0V0z
		 M17.598,17.596c-1.207,0-2.195,0.99-2.195,2.197c0,1.217,0.988,2.207,2.195,2.207c1.217,0,2.205-0.99,2.205-2.207
		C19.803,18.586,18.814,17.596,17.598,17.596z"/>
</g>
</svg>
