<?xml version="1.0" encoding="utf-8"?>
<!-- Generator: Adobe Illustrator 15.0.2, SVG Export Plug-In . SVG Version: 6.00 Build 0)  -->
<!DOCTYPE svg PUBLIC "-//W3C//DTD SVG 1.1//EN" "http://www.w3.org/Graphics/SVG/1.1/DTD/svg11.dtd">
<svg version="1.1" id="Calque_1" xmlns="http://www.w3.org/2000/svg" xmlns:xlink="http://www.w3.org/1999/xlink" x="0px" y="0px"
	 width="21.613px" height="24px" viewBox="245.193 244 21.613 24" enable-background="new 245.193 244 21.613 24"
	 xml:space="preserve">
<g>
	<path fill="none" d="M256,248.803c0.721,0,1.201-0.48,1.201-1.201c0-0.72-0.48-1.201-1.201-1.201c-0.72,0-1.201,0.48-1.201,1.201
		C254.799,248.323,255.28,248.803,256,248.803z"/>
	<path fill="#757575" d="M264.406,246.402h-5.043C258.882,244.961,257.562,244,256,244c-1.561,0-2.882,0.96-3.362,2.401h-5.043
		c-1.32,0-2.401,1.081-2.401,2.402v16.793c0,1.322,1.081,2.403,2.401,2.403h16.812c1.319,0,2.4-1.081,2.4-2.403v-16.793
		C266.807,247.482,265.726,246.402,264.406,246.402z M256,246.402c0.721,0,1.201,0.48,1.201,1.201c0,0.721-0.48,1.201-1.201,1.201
		c-0.72,0-1.201-0.48-1.201-1.201C254.799,246.882,255.28,246.402,256,246.402z M256,251.187c1.982,0,3.603,1.622,3.603,3.603
		c0,1.982-1.621,3.603-3.603,3.603s-3.604-1.621-3.604-3.603C252.397,252.809,254.019,251.187,256,251.187z M263.206,265.599
		h-14.412v-1.801c0-2.433,4.774-3.604,7.206-3.604s7.206,1.172,7.206,3.604V265.599L263.206,265.599z"/>
</g>
</svg>
