<?xml version="1.0" encoding="utf-8"?>
<!-- Generator: Adobe Illustrator 15.0.2, SVG Export Plug-In . SVG Version: 6.00 Build 0)  -->
<!DOCTYPE svg PUBLIC "-//W3C//DTD SVG 1.1//EN" "http://www.w3.org/Graphics/SVG/1.1/DTD/svg11.dtd">
<svg version="1.1" id="Calque_1" xmlns="http://www.w3.org/2000/svg" xmlns:xlink="http://www.w3.org/1999/xlink" x="0px" y="0px"
	 width="24px" height="24px" viewBox="244 244 24 24" enable-background="new 244 244 24 24" xml:space="preserve">
<g id="more-horiz">
	<path fill="#757575" d="M258.999,247c0-1.65-1.35-3-3-3c-1.649,0-2.999,1.35-2.999,3s1.35,3,2.999,3
		C257.649,250,258.999,248.65,258.999,247z M258.999,265.001c0-1.649-1.35-2.999-3-2.999c-1.649,0-2.999,1.35-2.999,2.999
		S254.351,268,256,268C257.649,268,258.999,266.651,258.999,265.001z M258.999,256.001c0-1.65-1.35-3-3-3
		c-1.649,0-2.999,1.35-2.999,3c0,1.649,1.35,3,2.999,3C257.649,258.999,258.999,257.65,258.999,256.001z"/>
</g>
<g id="more-horiz_1_" opacity="0">
	<path fill="#757575" d="M265,258.999c1.649,0,3-1.35,3-2.999s-1.351-3-3-3c-1.65,0-3,1.351-3,3S263.35,258.999,265,258.999z
		 M246.999,258.999c1.649,0,2.999-1.35,2.999-2.999s-1.35-3-2.999-3S244,254.351,244,256S245.35,258.999,246.999,258.999z
		 M256,258.999c1.65,0,3-1.35,3-2.999s-1.35-3-3-3c-1.649,0-3,1.351-3,3C253.001,257.65,254.351,258.999,256,258.999z"/>
</g>
</svg>
