<?xml version="1.0" encoding="utf-8"?>
<!-- Generator: Adobe Illustrator 15.0.2, SVG Export Plug-In . SVG Version: 6.00 Build 0)  -->
<!DOCTYPE svg PUBLIC "-//W3C//DTD SVG 1.1//EN" "http://www.w3.org/Graphics/SVG/1.1/DTD/svg11.dtd">
<svg version="1.1" id="Calque_1" xmlns="http://www.w3.org/2000/svg" xmlns:xlink="http://www.w3.org/1999/xlink" x="0px" y="0px"
	 width="22px" height="22px" viewBox="245 245 22 22" enable-background="new 245 245 22 22" xml:space="preserve">
<rect x="245" y="245" opacity="0" fill="#FFFFFF" width="22" height="22"/>
<g id="search" opacity="0.5">
	<path fill="#FFFFFF" d="M260.714,258.826h-1.006l-0.376-0.376c1.257-1.382,2.012-3.267,2.012-5.279
		c0-4.525-3.647-8.171-8.173-8.171c-4.524,0-8.171,3.646-8.171,8.171c0,4.526,3.646,8.172,8.171,8.172
		c2.012,0,3.897-0.754,5.279-2.012l0.376,0.377v1.007l6.288,6.285l1.886-1.885L260.714,258.826z M253.172,258.826
		c-3.142,0-5.656-2.512-5.656-5.655c0-3.142,2.515-5.656,5.656-5.656c3.144,0,5.655,2.515,5.655,5.656
		C258.827,256.314,256.314,258.826,253.172,258.826z"/>
</g>
</svg>
