<?xml version="1.0" encoding="utf-8"?>
<!-- Generator: Adobe Illustrator 15.0.2, SVG Export Plug-In . SVG Version: 6.00 Build 0)  -->
<!DOCTYPE svg PUBLIC "-//W3C//DTD SVG 1.1//EN" "http://www.w3.org/Graphics/SVG/1.1/DTD/svg11.dtd">
<svg version="1.1" id="Calque_1" xmlns="http://www.w3.org/2000/svg" xmlns:xlink="http://www.w3.org/1999/xlink" x="0px" y="0px"
	 width="16px" height="16px" viewBox="-1.143 0 16 16" enable-background="new -1.143 0 16 16" xml:space="preserve">
<g id="live-help">
	<path fill="#C0C2C6" d="M12.191,0.001H1.523C0.686,0.001,0,0.687,0,1.524v10.667c0,0.838,0.686,1.522,1.523,1.522h3.049
		l2.285,2.285l2.287-2.285h3.047c0.838,0,1.523-0.686,1.523-1.522V1.524C13.714,0.686,13.029,0.001,12.191,0.001z M7.619,12.191
		H6.094v-1.522h1.525V12.191z M9.219,6.324L8.533,7.011c-0.61,0.533-0.914,0.99-0.914,2.133H6.094V8.763
		c0-0.838,0.305-1.601,0.915-2.133l0.914-0.99C8.228,5.41,8.38,5.029,8.38,4.572c0-0.838-0.687-1.522-1.522-1.522
		c-0.838,0-1.524,0.686-1.524,1.522H3.809c0-1.676,1.372-3.047,3.049-3.047c1.676,0,3.047,1.372,3.047,3.047
		C9.904,5.257,9.6,5.867,9.219,6.324z"/>
</g>
<rect x="-1.143" opacity="0" fill="#C0C2C6" width="16" height="16"/>
</svg>
