<?xml version="1.0" encoding="utf-8"?>
<!-- Generator: Adobe Illustrator 15.0.2, SVG Export Plug-In . SVG Version: 6.00 Build 0)  -->
<!DOCTYPE svg PUBLIC "-//W3C//DTD SVG 1.1//EN" "http://www.w3.org/Graphics/SVG/1.1/DTD/svg11.dtd">
<svg version="1.1" id="Calque_1" xmlns="http://www.w3.org/2000/svg" xmlns:xlink="http://www.w3.org/1999/xlink" x="0px" y="0px"
	 width="16px" height="16px" viewBox="0 0 16 16" enable-background="new 0 0 16 16" xml:space="preserve">
<g>
	<path fill="#C0C2C6" d="M14.223,0H1.777C0.8,0,0,0.8,0,1.777v12.445C0,15.201,0.8,16,1.777,16h12.445C15.201,16,16,15.2,16,14.223
		V1.777C16,0.8,15.2,0,14.223,0z M13.6,13.578l-0.633,0.633l-3.402-3.4c-0.709,0.474-1.563,0.75-2.479,0.75
		c-2.472,0-4.476-2.004-4.476-4.477s2.004-4.475,4.476-4.475s4.476,2.002,4.476,4.475c0,0.907-0.271,1.75-0.732,2.455l3.406,3.406
		L13.6,13.578z"/>
	<path fill="#C0C2C6" d="M7.084,4.398c-1.482,0-2.686,1.203-2.686,2.686S5.602,9.77,7.084,9.77c0.42,0,0.818-0.097,1.172-0.269
		c0.275-0.134,0.523-0.313,0.737-0.528c0.213-0.216,0.39-0.468,0.521-0.744C9.678,7.881,9.77,7.494,9.77,7.084
		C9.77,5.602,8.566,4.398,7.084,4.398z"/>
</g>
<rect opacity="0" fill="#C0C2C6" width="16" height="16"/>
</svg>
