<?xml version="1.0" encoding="utf-8"?>
<!-- Generator: Adobe Illustrator 15.0.2, SVG Export Plug-In . SVG Version: 6.00 Build 0)  -->
<!DOCTYPE svg PUBLIC "-//W3C//DTD SVG 1.1//EN" "http://www.w3.org/Graphics/SVG/1.1/DTD/svg11.dtd">
<svg version="1.1" id="Calque_1" xmlns="http://www.w3.org/2000/svg" xmlns:xlink="http://www.w3.org/1999/xlink" x="0px" y="0px"
	 width="16px" height="16px" viewBox="0 0 16 16" enable-background="new 0 0 16 16" xml:space="preserve">
<g id="shopping-cart">
	<path fill="#C0C2C6" d="M4.8,12.799c-0.88,0-1.6,0.721-1.6,1.6C3.2,15.281,3.92,16,4.8,16S6.4,15.281,6.4,14.399
		C6.4,13.52,5.68,12.799,4.8,12.799z M0,0v1.602h1.6L4.48,7.681L3.359,9.6C3.279,9.839,3.2,10.162,3.2,10.401
		c0,0.879,0.72,1.601,1.6,1.601H14.4v-1.601H5.12c-0.08,0-0.16-0.081-0.16-0.159v-0.08l0.72-1.359h5.92
		c0.642,0,1.121-0.321,1.361-0.801l2.88-5.198C16,2.643,16,2.563,16,2.403c0-0.48-0.32-0.8-0.801-0.8H3.359L2.641,0.002H0V0z
		 M12.799,12.799c-0.879,0-1.599,0.721-1.599,1.6c0,0.882,0.72,1.602,1.599,1.602c0.883,0,1.602-0.72,1.602-1.602
		C14.4,13.52,13.682,12.799,12.799,12.799z"/>
</g>
</svg>
