<?xml version="1.0" encoding="utf-8"?>
<!-- Generator: Adobe Illustrator 15.0.2, SVG Export Plug-In . SVG Version: 6.00 Build 0)  -->
<!DOCTYPE svg PUBLIC "-//W3C//DTD SVG 1.1//EN" "http://www.w3.org/Graphics/SVG/1.1/DTD/svg11.dtd">
<svg version="1.1" id="Calque_1" xmlns="http://www.w3.org/2000/svg" xmlns:xlink="http://www.w3.org/1999/xlink" x="0px" y="0px"
	 width="24px" height="24px" viewBox="244 244 24 24" enable-background="new 244 244 24 24" xml:space="preserve">
<g id="drive-form">
	<g>
		<path fill="#757575" d="M265.334,244h-18.667c-1.466,0-2.667,1.2-2.667,2.667v18.667c0,1.466,1.2,2.666,2.667,2.666h18.667
			c1.466,0,2.666-1.2,2.666-2.666v-18.667C268,245.2,266.8,244,265.334,244z M252,262.666h-2.667V260H252V262.666z M252,257.334
			h-2.667v-2.667H252V257.334z M252,252h-2.667v-2.667H252V252z M262.666,262.666h-9.333V260h9.333V262.666z M262.666,257.334
			h-9.333v-2.667h9.333V257.334z M262.666,252h-9.333v-2.667h9.333V252z"/>
	</g>
</g>
</svg>
