<?xml version="1.0" encoding="utf-8"?>
<!-- Generator: Adobe Illustrator 15.0.2, SVG Export Plug-In . SVG Version: 6.00 Build 0)  -->
<!DOCTYPE svg PUBLIC "-//W3C//DTD SVG 1.1//EN" "http://www.w3.org/Graphics/SVG/1.1/DTD/svg11.dtd">
<svg version="1.1" id="Calque_1" xmlns="http://www.w3.org/2000/svg" xmlns:xlink="http://www.w3.org/1999/xlink" x="0px" y="0px"
	 width="36px" height="36px" viewBox="0 0 36 36" enable-background="new 0 0 36 36" xml:space="preserve">
<g id="account-circle">
	<g>
		<path fill="#777E86" d="M18,0C8.1,0,0,8.1,0,18s8.1,18,18,18s18-8.1,18-18S27.9,0,18,0z M18,5.4c3.059,0,5.4,2.34,5.4,5.399
			c0,3.062-2.342,5.399-5.4,5.399c-3.061,0-5.4-2.34-5.4-5.399S14.939,5.4,18,5.4z M18,30.959c-4.5,0-8.459-2.342-10.799-5.759
			c0-3.603,7.199-5.581,10.799-5.581c3.598,0,10.799,1.979,10.799,5.581C26.457,28.617,22.501,30.959,18,30.959z"/>
	</g>
</g>
</svg>
